<svg width="129" height="60" viewBox="0 0 129 60" fill="none" xmlns="http://www.w3.org/2000/svg">
<g id="Group 10">
<path id="Vector" d="M3.87633 21.7311H1.24317V23.5466H3.78297V24.6182H1.24317V28.2153H0.1026V20.6595H3.87633V21.7311Z" fill="#231F20"/>
<path id="Vector_2" d="M9.13675 26.3796H5.90218L5.0602 28.2149H3.83215L7.57098 20.1842L11.1778 28.2149H9.92951L9.13675 26.3796ZM8.67202 25.3084L7.55121 22.7391L6.37657 25.3084H8.67202Z" fill="#231F20"/>
<path id="Vector_3" d="M17.3538 21.0653V22.4157C16.6948 21.8644 16.013 21.5889 15.3082 21.5889C14.5318 21.5889 13.8774 21.8677 13.3458 22.4258C12.8109 22.9805 12.5434 23.6589 12.5434 24.4613C12.5434 25.2541 12.8109 25.9232 13.3458 26.4679C13.8808 27.0129 14.5364 27.2854 15.3132 27.2854C15.7144 27.2854 16.0555 27.2198 16.336 27.0895C16.4925 27.0243 16.6548 26.936 16.823 26.8253C16.9909 26.7143 17.1679 26.5806 17.3538 26.4241V27.799C16.7015 28.1678 16.016 28.352 15.2985 28.352C14.2185 28.352 13.297 27.9752 12.5333 27.2215C11.7729 26.4616 11.3931 25.5447 11.3931 24.4714C11.3931 23.5092 11.7111 22.6508 12.3474 21.8972C13.1305 20.974 14.1436 20.5122 15.3864 20.5122C16.0652 20.5122 16.7209 20.6964 17.3538 21.0653Z" fill="#231F20"/>
<path id="Vector_4" d="M19.9327 20.659V25.2104C19.9327 25.8593 20.0387 26.3341 20.2511 26.6344C20.5673 27.0684 21.0127 27.285 21.5868 27.285C22.1646 27.285 22.6113 27.0684 22.928 26.6344C23.1399 26.3442 23.2459 25.8694 23.2459 25.2104V20.659H24.3861V25.5233C24.3861 26.3194 24.1383 26.9755 23.6425 27.4907C23.0844 28.0647 22.3993 28.352 21.5868 28.352C20.7742 28.352 20.0908 28.0647 19.5365 27.4907C19.0403 26.9755 18.7925 26.3194 18.7925 25.5233V20.659H19.9327Z" fill="#231F20"/>
<path id="Vector_5" d="M27.3372 20.659V27.1433H29.559V28.2149H26.197V20.659H27.3372Z" fill="#231F20"/>
<path id="Vector_6" d="M32.236 21.7311V28.2153H31.0958V21.7311H29.3585V20.6595H33.9683V21.7311H32.236Z" fill="#231F20"/>
<path id="Vector_7" d="M39.0138 26.3796H35.7792L34.9372 28.2149H33.7092L37.448 20.1842L41.0548 28.2149H39.8065L39.0138 26.3796ZM38.549 25.3084L37.4282 22.7391L36.2536 25.3084H38.549Z" fill="#231F20"/>
<path id="Vector_8" d="M41.9994 28.2149V20.659H43.5849C44.3453 20.659 44.9455 20.7339 45.3858 20.884C45.8589 21.0308 46.2879 21.2806 46.6731 21.6326C47.4529 22.3442 47.8427 23.2787 47.8427 24.4369C47.8427 25.5985 47.4365 26.5381 46.6239 27.256C46.216 27.6147 45.7887 27.8641 45.342 28.0046C44.9244 28.1451 44.3318 28.2149 43.5656 28.2149H41.9994ZM43.1391 27.1433H43.6531C44.1653 27.1433 44.5909 27.0894 44.9303 26.9818C45.2697 26.8678 45.5763 26.6865 45.8505 26.4384C46.4115 25.9262 46.6921 25.2591 46.6921 24.4369C46.6921 23.6084 46.4149 22.9364 45.8602 22.4207C45.361 21.9606 44.6254 21.7306 43.6531 21.7306H43.1391V27.1433Z" fill="#231F20"/>
<path id="Vector_9" d="M3.52393 40.3617V32.8054H5.10946C5.86984 32.8054 6.46999 32.8806 6.91032 33.0304C7.38346 33.1776 7.81243 33.427 8.19767 33.779C8.9774 34.4906 9.36726 35.4251 9.36726 36.5833C9.36726 37.7453 8.961 38.6844 8.14846 39.4023C7.74052 39.7611 7.31322 40.0105 6.86658 40.151C6.44896 40.2914 5.85638 40.3612 5.09011 40.3612L3.52393 40.3617ZM4.66408 39.2896H5.17801C5.69026 39.2896 6.11587 39.2362 6.45527 39.1286C6.79466 39.0146 7.10126 38.8329 7.37546 38.5848C7.9365 38.0725 8.21702 37.4055 8.21702 36.5833C8.21702 35.7548 7.93986 35.0831 7.38514 34.5671C6.88593 34.107 6.15036 33.877 5.17801 33.877H4.66408V39.2896Z" fill="#231F20"/>
<path id="Vector_10" d="M14.9705 33.8774H11.9411V35.6925H14.8826V36.7646H11.9411V39.2901H14.9705V40.3617H10.801V32.8058H14.9705V33.8774Z" fill="#231F20"/>
<path id="Vector_11" d="M23.9995 38.5259H20.765L19.923 40.3613H18.6949L22.4338 32.3301L26.0405 40.3613H24.7923L23.9995 38.5259ZM23.5348 37.4543L22.414 34.8851L21.2394 37.4543H23.5348Z" fill="#231F20"/>
<path id="Vector_12" d="M29.5447 37.1414L31.8839 40.3612H30.4893L28.331 37.2684H28.1253V40.3612H26.9852V32.8054H28.3213C29.3193 32.8054 30.0406 32.9929 30.4843 33.3681C30.9734 33.7861 31.2182 34.3375 31.2182 35.0226C31.2182 35.5571 31.0651 36.0176 30.7585 36.4029C30.4515 36.7873 30.0469 37.0337 29.5447 37.1414ZM28.1253 36.275H28.4874C29.5674 36.275 30.1074 35.8629 30.1074 35.0373C30.1074 34.2635 29.5822 33.8774 28.5316 33.8774H28.1253V36.275Z" fill="#231F20"/>
<path id="Vector_13" d="M35.0159 33.8774V40.3617H33.8757V33.8774H32.1384V32.8058H36.7482V33.8774H35.0159Z" fill="#231F20"/>
<path id="Vector_14" d="M41.9358 33.8774H38.9065V35.6925H41.8479V36.7646H38.9065V39.2901H41.9358V40.3617H37.7664V32.8058H41.9358V33.8774Z" fill="#231F20"/>
<path id="Vector_15" d="M47.7056 33.9308L46.7807 34.4792C46.6079 34.1785 46.443 33.9829 46.2862 33.8921C46.1234 33.7878 45.9127 33.7352 45.6553 33.7352C45.3386 33.7352 45.0762 33.8252 44.8672 34.0044C44.6582 34.1806 44.5539 34.4027 44.5539 34.6701C44.5539 35.039 44.8281 35.3355 45.3761 35.5609L46.1297 35.8692C46.7433 36.1169 47.1916 36.4197 47.4755 36.7767C47.7594 37.1342 47.9016 37.572 47.9016 38.091C47.9016 38.7854 47.6698 39.3603 47.2064 39.8137C46.74 40.2704 46.1608 40.4988 45.4694 40.4988C44.8133 40.4988 44.2717 40.304 43.8444 39.9163C43.4234 39.5277 43.1609 38.9814 43.0566 38.2769L44.2115 38.0225C44.2637 38.4666 44.3549 38.7732 44.4857 38.9427C44.7204 39.2682 45.0632 39.4318 45.5132 39.4318C45.869 39.4318 46.1642 39.3128 46.3993 39.0743C46.634 38.8367 46.7513 38.5347 46.7513 38.1692C46.7513 38.022 46.7311 37.8879 46.6899 37.7655C46.6495 37.6431 46.5856 37.5308 46.4994 37.4274C46.4128 37.3247 46.3013 37.2284 46.1642 37.1384C46.0271 37.0489 45.8639 36.9631 45.6747 36.8819L44.9458 36.5782C43.9112 36.1413 43.3944 35.5016 43.3944 34.6596C43.3944 34.0919 43.6114 33.617 44.045 33.236C44.479 32.8508 45.019 32.6586 45.665 32.6586C46.536 32.659 47.216 33.0829 47.7056 33.9308Z" fill="#231F20"/>
<path id="Vector_16" d="M2.46704 49.244L0 44.9521H1.31174L3.03901 47.971L4.77174 44.9521H6.08348L3.60677 49.244V52.5076H2.46704V49.244Z" fill="#231F20"/>
<path id="Vector_17" d="M10.0473 52.5076V44.9517H11.6328C12.3932 44.9517 12.9934 45.0266 13.4337 45.1767C13.9068 45.3235 14.3358 45.5729 14.721 45.9253C15.5008 46.6365 15.8906 47.5714 15.8906 48.7297C15.8906 49.8913 15.4844 50.8308 14.6718 51.5487C14.2639 51.9075 13.8366 52.1564 13.39 52.2969C12.9723 52.4374 12.3798 52.5072 11.6135 52.5072H10.0473V52.5076ZM11.1875 51.4364H11.7014C12.2136 51.4364 12.6392 51.3826 12.9786 51.2749C13.318 51.161 13.6246 50.9797 13.8988 50.7316C14.4599 50.2193 14.7404 49.5523 14.7404 48.7301C14.7404 47.9011 14.4632 47.2295 13.9085 46.7135C13.4093 46.2534 12.6737 46.0233 11.7014 46.0233H11.1875V51.4364Z" fill="#231F20"/>
<path id="Vector_18" d="M18.4649 44.9526H17.3248V52.5085H18.4649V44.9526Z" fill="#231F20"/>
<path id="Vector_19" d="M24.5526 46.0776L23.6278 46.6256C23.4549 46.3249 23.2901 46.1293 23.1332 46.0384C22.9705 45.9341 22.7597 45.8816 22.5024 45.8816C22.1857 45.8816 21.9232 45.972 21.7142 46.1512C21.5052 46.327 21.4009 46.5494 21.4009 46.8165C21.4009 47.1853 21.6751 47.4818 22.2231 47.7077L22.9768 48.0155C23.5904 48.2632 24.0387 48.566 24.3226 48.9235C24.6065 49.2806 24.7486 49.7184 24.7486 50.2374C24.7486 50.9322 24.5169 51.5066 24.0534 51.96C23.587 52.4167 23.0079 52.6451 22.3165 52.6451C21.6604 52.6451 21.1187 52.4508 20.6914 52.0626C20.2704 51.6745 20.008 51.1277 19.9037 50.4233L21.0586 50.1692C21.1107 50.6134 21.202 50.9195 21.3328 51.0894C21.5674 51.415 21.9102 51.5781 22.3602 51.5781C22.716 51.5781 23.0112 51.4591 23.2463 51.2207C23.481 50.9835 23.5984 50.6811 23.5984 50.3156C23.5984 50.1688 23.5782 50.0347 23.537 49.9123C23.4966 49.7899 23.4327 49.6772 23.3464 49.5741C23.2598 49.4715 23.1484 49.3748 23.0112 49.2852C22.8741 49.1956 22.711 49.1094 22.5217 49.0287L21.7929 48.725C20.7583 48.2881 20.2414 47.648 20.2414 46.8064C20.2414 46.2382 20.4584 45.7638 20.892 45.3824C21.326 44.9971 21.866 44.8049 22.512 44.8049C23.383 44.8054 24.0631 45.2293 24.5526 46.0776Z" fill="#231F20"/>
<path id="Vector_20" d="M30.2934 46.0233H27.2641V47.8393H30.2055V48.9109H27.2641V51.4369H30.2934V52.5076H26.1239V44.9526H30.2934V46.0233Z" fill="#231F20"/>
<path id="Vector_21" d="M31.791 52.5076V44.4378L37.3012 50.2025V44.9521H38.4414V52.9681L32.9311 47.2177V52.5076H31.791ZM33.7239 44.1934L33.0829 43.6501L33.2247 43.449C33.3159 43.3187 33.4042 43.2089 33.4888 43.1193C33.5737 43.0293 33.6604 42.9561 33.7483 42.8989C33.8366 42.8422 33.9278 42.8014 34.0225 42.7766C34.1171 42.7522 34.2197 42.74 34.3308 42.74C34.5852 42.74 34.8804 42.8249 35.2165 42.994C35.5559 43.1673 35.7741 43.2535 35.8721 43.2535C36.0551 43.2535 36.2574 43.0777 36.479 42.7248L37.1006 43.2434C36.7877 43.87 36.3633 44.1829 35.8284 44.1829C35.6454 44.1829 35.3468 44.0912 34.9326 43.9091C34.6357 43.7594 34.414 43.6841 34.2672 43.6841C34.0877 43.6846 33.9068 43.854 33.7239 44.1934Z" fill="#231F20"/>
<path id="Vector_22" d="M39.944 48.6956C39.944 47.632 40.3335 46.7185 41.1132 45.9552C41.89 45.1915 42.8228 44.81 43.9129 44.81C44.9896 44.81 45.9127 45.1944 46.6828 45.9649C47.4558 46.7345 47.8423 47.6593 47.8423 48.7398C47.8423 49.8257 47.4545 50.748 46.6777 51.5046C45.898 52.2649 44.9568 52.6447 43.854 52.6447C42.8783 52.6447 42.0027 52.307 41.2259 51.632C40.3713 50.8846 39.944 49.906 39.944 48.6956ZM41.0939 48.7103C41.0939 49.5456 41.3744 50.2324 41.9354 50.7703C42.4935 51.309 43.1378 51.5777 43.8687 51.5777C44.6615 51.5777 45.3302 51.3039 45.8753 50.756C46.4199 50.2012 46.6924 49.5258 46.6924 48.7297C46.6924 47.9239 46.4233 47.2489 45.8849 46.7038C45.35 46.1558 44.6876 45.8816 43.8978 45.8816C43.1117 45.8816 42.4477 46.1558 41.9064 46.7038C41.3647 47.2459 41.0939 47.9146 41.0939 48.7103Z" fill="#231F20"/>
<path id="Vector_23" d="M17.699 3.2724V7.50876C17.699 8.47816 17.6591 9.43747 16.9096 10.1667C16.28 10.7862 15.2909 11.0062 14.4119 11.0062C13.5325 11.0062 12.5433 10.7862 11.9137 10.1667C11.1643 9.43747 11.1243 8.47816 11.1243 7.50876V3.2724H13.0829V7.23917C13.0829 8.21825 13.1527 9.28733 14.4119 9.28733C15.6706 9.28733 15.7409 8.21825 15.7409 7.23917V3.2724H17.699Z" fill="#231F20"/>
<path id="Vector_24" d="M19.9373 3.2724H21.8955L25.4829 7.87886H25.5022V3.2724H27.4612V10.8064H25.5022L21.9157 6.18986H21.8955V10.8064H19.9373V3.2724Z" fill="#231F20"/>
<path id="Vector_25" d="M31.6572 9.49761L31.1378 10.8064H29.0594L31.9571 3.2724H34.0952L36.9328 10.8064H34.8447L34.3551 9.49761H31.6572ZM33.0262 5.60065H33.0064L32.1968 7.99872H33.8252L33.0262 5.60065Z" fill="#231F20"/>
<path id="Vector_26" d="M39.3704 3.2724H41.2987L42.8278 7.29932L44.4462 3.2724H46.3947L47.534 10.8064H45.5754L45.0257 6.46996H45.0059L43.1975 10.8064H42.4182L40.6893 6.46996H40.6695L40.0399 10.8064H38.0914L39.3704 3.2724Z" fill="#231F20"/>
<path id="Vector_27" d="M112.57 3.78173C104.91 -0.229629 96.0429 0.254442 96.0429 0.254442V17.1187L86.9831 0.968563C86.9709 0.946693 86.9545 0.929871 86.941 0.908842C86.9179 0.870991 86.896 0.83314 86.8703 0.797392C86.8476 0.76585 86.8237 0.735569 86.7988 0.705288C86.7711 0.670802 86.7421 0.637998 86.7126 0.606456C86.6857 0.577016 86.6584 0.548417 86.6294 0.52066C86.6016 0.494585 86.5722 0.469351 86.5427 0.444538C86.5087 0.41636 86.4742 0.389023 86.4384 0.363369C86.4031 0.337714 86.3669 0.313742 86.3291 0.290611C86.3127 0.280097 86.2992 0.266218 86.282 0.256124C86.2664 0.246872 86.25 0.242666 86.2345 0.234255C86.1991 0.21533 86.1638 0.197666 86.1272 0.180423C86.0835 0.160656 86.0406 0.142992 85.9956 0.12617C85.959 0.112291 85.9228 0.0984122 85.8858 0.087057C85.8513 0.0761223 85.8164 0.0681317 85.7815 0.0597204C85.7361 0.0487857 85.6902 0.0391127 85.6436 0.031122C85.604 0.0248135 85.5653 0.017243 85.5262 0.0134579C85.4867 0.00925227 85.4472 0.00925229 85.4072 0.00757003C85.3815 0.00630834 85.3576 0 85.3315 0H53.7058V53.4202C53.7058 54.4658 54.5528 55.3128 55.5984 55.3128C56.2784 55.3128 56.8697 54.8809 57.2037 54.3388C57.223 54.3123 57.2453 54.2929 57.263 54.2614L74.1032 26.0031H96.0429V59.9638C96.0429 59.9638 105.392 60.6472 112.953 56.0736C119.547 52.0854 128.041 43.5613 128.041 30.2614C128.041 15.7148 119.27 7.29092 112.57 3.78173ZM71.3948 21.6398H58.1394V4.34402H81.3294L71.3948 21.6398ZM114.306 49.7895L100.178 24.7414V4.76459C102.589 5.05183 105.486 5.24487 109.799 7.39312C118.254 11.6051 123.625 20.4054 123.625 30.5293C123.625 38.6201 120.442 43.5773 114.306 49.7895Z" fill="#231F20"/>
<path id="Vector_28" d="M58.1394 44.9866L58.2794 26.0031H69.1961L58.1394 44.9866Z" fill="#EC1C24"/>
<path id="Vector_29" d="M76.574 21.6402L85.1843 6.7757L93.5544 21.6402H76.574Z" fill="#FFF100"/>
<path id="Vector_30" d="M100.178 55.8351V32.958L110.604 52.2208C106.417 54.5036 102.566 55.4549 100.178 55.8351Z" fill="#008FD5"/>
</g>
</svg>
